<svg width="112" height="113" fill="none" xmlns="http://www.w3.org/2000/svg"><path d="M18.598.78c-1.575.721-2.079 1.531-2.538 4.113-.153.985-.306 1.817-.306 1.838 0 .022-.35.154-.766.285-.722.24-.832.197-2.407-.854-1.75-1.16-2.713-1.466-3.938-1.247-.941.175-2.648 1.51-3.501 2.757-.547.788-.657 1.16-.657 2.189.022 1.138.132 1.422 1.182 3.041l1.181 1.795-.35.744c-.24.503-.547.766-.962.853-.329.066-1.182.219-1.86.35C1.138 17.148 0 18.614 0 21.393c0 2.298.635 3.632 2.035 4.377.437.218 3.632.94 4.245.94.021 0 .153.35.284.766.24.766.219.854-.875 2.43-1.794 2.581-1.729 3.938.284 6.148 2.166 2.364 3.917 2.451 6.805.307 1.203-.897 1.225-.897 1.97-.591.48.197.809.503.874.831.066.285.22 1.095.35 1.817.525 2.757 1.86 3.83 4.836 3.83 3.282 0 4.55-1.073 5.12-4.377.175-.985.35-1.839.372-1.86.043-.022.394-.154.81-.285.678-.24.809-.197 2.319.854 2.669 1.86 4.55 1.706 6.651-.591 1.97-2.145 2.013-3.436.24-6.215-1.159-1.794-1.159-1.794-.809-2.517.306-.656.46-.744 1.838-.962 2.166-.372 2.757-.613 3.523-1.4.919-.964 1.138-1.642 1.138-3.59 0-2.998-1.138-4.398-3.939-4.88-2.363-.393-2.363-.393-2.625-1.203-.241-.722-.197-.832.875-2.363 1.838-2.648 1.728-4.114-.438-6.28-2.188-2.189-3.763-2.277-6.586-.417-1.663 1.095-1.684 1.095-2.45.788-.722-.306-.766-.394-1.029-1.947-.328-1.992-.853-3.042-1.903-3.83-.7-.547-1.007-.613-2.67-.678-1.334-.022-2.1.044-2.647.284zm3.15 3.544c.066.22.22.963.329 1.663.438 2.408 1.378 3.567 3.654 4.443 1.597.612 2.8.35 4.77-1.007l1.684-1.182.744.766.766.744-1.247 1.817c-1.094 1.575-1.247 1.925-1.247 2.822.022 1.488.875 3.655 1.75 4.42.7.614 1.247.789 4.136 1.27l1.094.175v2.407l-1.423.263c-2.275.437-2.363.481-3.172 1.203-.985.854-1.838 2.517-2.013 3.852-.131 1.225.175 2.013 1.488 3.83l.94 1.268-.787.788-.766.766-1.51-1.094c-1.969-1.422-2.91-1.685-4.485-1.226-2.823.832-3.632 1.795-4.135 4.946-.307 1.86-.35 1.882-1.904 1.575-.613-.109-.656-.218-.985-1.99-.415-2.233-1.05-3.13-2.822-4.115-.94-.503-1.466-.634-2.494-.656-1.248 0-1.4.065-3.02 1.181l-1.706 1.182-.679-.678-.7-.679.94-1.269c1.336-1.838 1.62-2.604 1.489-3.851-.153-1.291-1.335-3.523-2.166-4.114-.35-.263-1.488-.613-2.626-.81L3.61 22.64v-2.385l1.86-.328c1.028-.197 2.057-.46 2.297-.591 1.138-.635 1.795-1.729 2.538-4.158.285-.94-.109-2.035-1.444-3.873l-1.05-1.488.766-.766.788-.766 1.575 1.116c2.144 1.488 2.91 1.685 4.485 1.138 2.713-.963 3.26-1.576 3.742-4.18.197-1.028.394-1.99.438-2.144.043-.153.459-.263 1.05-.263.744 0 1.006.088 1.094.372z" fill="#fff"/><path d="M18.62 12.815c-5.536 1.553-8.249 7.462-5.777 12.582 2.451 5.077 9.759 6.368 14.07 2.495 3.916-3.545 3.675-10.154-.482-13.458-2.057-1.62-5.36-2.298-7.811-1.62zm4.682 3.939c.525.306 1.247.919 1.62 1.356 2.23 2.692 1.509 6.368-1.554 8.075-3.545 1.948-7.92-.656-7.92-4.726 0-2.473 1.706-4.64 4.134-5.274 1.073-.285 2.714-.044 3.72.569z" fill="#fff"/><path d="M44.745 15.003c-.766.744-.744 1.882.022 2.495l.59.46h29.341c23.937.021 29.495.065 30.173.306 1.203.437 2.254 1.335 2.932 2.494l.612 1.029.066 26.303.044 26.325H5.251v-33.94l-.547-.526c-.744-.765-1.881-.744-2.494.044l-.46.57.044 24.967.066 24.97.7 1.466c.919 1.97 2.407 3.501 4.201 4.398l1.444.7 48.224.066c44.438.044 48.332.022 49.361-.306a9.305 9.305 0 005.623-5.274l.503-1.27.066-33.896c.044-36.894.109-35.275-1.138-37.397-.7-1.204-2.144-2.626-3.326-3.326-2.122-1.248-.875-1.204-32.863-1.204H45.27l-.525.547zm63.999 68.45c0 6.39-.154 7.111-1.707 8.665-.635.613-1.378 1.116-1.925 1.291-1.423.416-95.441.372-96.447-.044-1.007-.415-2.276-1.575-2.823-2.626-.46-.853-.481-1.225-.547-6.761l-.066-5.843h103.515v5.317z" fill="#fff"/><path d="M55.575 80.958c-2.275.744-3.916 2.823-3.938 4.967-.022 4.77 5.71 7.134 9.036 3.698 2.407-2.473 1.663-6.63-1.466-8.25-.94-.481-2.8-.7-3.632-.415zm2.582 3.873c.613.678.613 1.4.022 2.144-.635.81-1.947.81-2.582 0-.547-.7-.59-1.356-.11-2.013.723-1.028 1.795-1.072 2.67-.131zm-3.894-62.038c-.679.285-1.707 1.226-2.08 1.948-.152.306-.415 1.4-.546 2.407-.153 1.029-.35 2.013-.46 2.232-.109.197-.634.525-1.181.744l-1.007.372-.918-.7c-2.604-1.948-2.845-2.079-4.136-2.166-.722-.066-1.553.021-1.925.175-.832.35-3.238 2.888-3.632 3.851-.7 1.663-.35 2.78 1.597 5.164l1.203 1.466-.394 1.029c-.415 1.116-.7 1.27-2.494 1.51-3.873.481-5.032 1.75-5.01 5.47.021 3.742 1.006 4.858 4.638 5.362l1.926.262.547 1.095.569 1.116-.679.897c-1.881 2.516-2.253 3.195-2.363 4.114-.153 1.29.285 2.21 1.794 3.873 2.56 2.757 4.092 2.845 7.352.438l1.794-1.335.897.394c.482.218 1.007.481 1.116.569.131.109.372 1.181.569 2.385.394 2.385.656 2.932 1.86 3.851.766.57.963.613 3.282.679 2.253.065 2.56.043 3.391-.438 1.182-.657 1.838-1.86 2.144-3.895.416-2.648.394-2.604 1.445-3.108l.962-.46.897.636c3.764 2.691 3.48 2.538 5.076 2.45 1.729-.087 2.167-.35 3.83-2.32 1.837-2.166 2.012-3.675.656-5.601-.394-.547-.985-1.4-1.335-1.882-.59-.832-.612-.941-.35-1.729.153-.46.35-.963.438-1.094.087-.153 1.116-.416 2.319-.59 2.538-.373 3.544-.92 4.288-2.342.416-.788.504-1.248.504-3.217 0-2.538-.241-3.239-1.4-4.223-.81-.679-1.554-.92-3.873-1.248l-1.773-.262-.46-1.116-.48-1.116 1.225-1.62c1.925-2.538 2.188-3.545 1.422-5.186-.547-1.182-2.45-3.239-3.391-3.698-.963-.46-2.582-.46-3.48 0-.393.197-1.356.853-2.165 1.444l-1.488 1.094-.985-.372c-.525-.218-1.072-.503-1.181-.634-.088-.132-.307-1.073-.46-2.101-.525-3.786-1.728-4.836-5.514-4.792-1.116 0-2.275.109-2.581.218zm4.135 4.18c.11.285.262 1.05.35 1.707.35 2.888 1.116 4.07 3.172 4.99 2.692 1.203 3.523 1.093 6.127-.832.963-.723 1.838-1.313 1.925-1.313.088 0 .591.415 1.094.94l.92.942-1.226 1.64c-1.575 2.102-1.838 2.627-1.838 3.677 0 .897.875 3.195 1.597 4.202.657.897 1.576 1.313 3.939 1.685l2.231.372v3.041l-2.253.394c-2.866.46-3.523.92-4.551 3.151-1.138 2.43-1.05 3.217.569 5.865l1.334 2.144-.81.898a47.561 47.561 0 01-.984 1.116c-.087.109-.963-.394-1.99-1.16-2.714-2.035-3.72-2.145-6.652-.744-1.794.831-2.232 1.575-2.735 4.376-.22 1.313-.416 2.386-.416 2.408 0 .043-.635.065-1.422.065h-1.4l-.132-.722c-.066-.372-.197-1.335-.328-2.079-.219-1.554-1.007-3.063-1.838-3.632-1.072-.679-2.888-1.27-3.96-1.291-1.05 0-1.247.109-3.042 1.487l-1.925 1.489-1.007-1.007-1.006-1.007.7-.94c2.188-2.955 2.32-3.217 2.32-4.4 0-.852-.22-1.575-.832-2.822-1.007-2.123-1.794-2.648-4.507-3.042-2.582-.35-2.626-.393-2.626-1.947 0-.7.088-1.335.175-1.4.11-.066 1.072-.241 2.166-.416 3.085-.504 3.764-1.007 4.858-3.59 1.072-2.472.919-3.194-1.16-5.951l-1.225-1.62.722-.897c1.181-1.4 1.247-1.422 2.691-.306 2.1 1.62 2.713 1.925 3.873 1.925 1.247 0 3.479-.875 4.376-1.706.919-.854 1.181-1.467 1.444-3.436.416-2.954.284-2.735 1.772-2.735 1.182 0 1.335.065 1.51.481z" fill="#fff"/><path d="M54.59 36.645c-2.756.678-5.382 2.823-6.629 5.383-3.173 6.521 1.663 14.224 8.927 14.224 5.951 0 10.656-5.427 9.824-11.313-.81-5.8-6.498-9.694-12.121-8.294zm4.223 3.523c1.51.46 3.326 2.123 3.983 3.655 1.356 3.15-.022 6.652-3.282 8.403-1.073.59-4.18.59-5.252 0-1.531-.832-2.385-1.685-3.106-3.13-1.313-2.691-.766-5.426 1.51-7.505 1.793-1.642 3.806-2.101 6.148-1.423zm-17.175 60.944c-.81.328-.941.919-.941 4.464v3.414h-3.48c-3.369 0-3.478.021-4.047.547-.744.7-.766 1.685-.022 2.407l.525.547h46.342l.59-.547c.745-.7.767-1.685.023-2.407-.525-.526-.613-.547-4.048-.547h-3.5v-3.173c0-2.451-.088-3.348-.329-3.852-.394-.744-1.203-1.138-1.991-.941-1.05.263-1.182.766-1.182 4.508v3.458h-25.38v-3.173c0-3.502-.22-4.333-1.226-4.705-.634-.263-.7-.263-1.334 0z" fill="#fff"/></svg>