<svg width="112" height="112" fill="none" xmlns="http://www.w3.org/2000/svg"><path d="M51.961.287c-1.75.397-4.418 1.48-6.146 2.561-3.062 1.855-6.124 5.587-7.524 9.098-1.815 4.548-1.837 9.804-.087 14.308 1.728 4.482 5.577 8.523 10.04 10.577 5.664 2.583 12.882 2.01 18.175-1.458 1.837-1.214 4.855-4.371 5.905-6.182 2.078-3.6 2.822-6.669 2.647-10.908-.132-3.268-.481-4.703-1.794-7.464C70.815 5.895 66.42 2.165 61.147.575 59.07-.044 54.17-.2 51.962.287zm7.59 4.482c5.337 1.391 9.383 5.498 10.783 10.952.415 1.679.415 5.101-.022 6.956-.962 4.195-3.915 7.86-7.852 9.826-2.144 1.082-4.003 1.502-6.452 1.502-4.069 0-7.524-1.436-10.39-4.35-3.28-3.335-4.768-7.574-4.265-12.1.722-6.294 4.965-11.152 11.264-12.874 1.663-.464 4.987-.398 6.934.088z" fill="#fff"/><path d="M62.679 13.867c-.24.132-2.384 2.208-4.747 4.57l-4.308 4.328-2.056-2.031c-1.837-1.81-2.144-2.032-2.844-2.032-1.224 0-2.23.994-2.23 2.186 0 .884.13 1.038 3.062 3.997 3.28 3.334 3.849 3.666 5.052 3.025.35-.198 3.018-2.76 5.95-5.74 5.248-5.322 5.292-5.389 5.292-6.316 0-1.7-1.728-2.782-3.171-1.987zM33.545 44.846c-2.1.53-3.478 1.436-7.196 4.836-2.012 1.81-3.98 3.423-4.374 3.6-.59.242-2.669.308-10.52.308C.583 53.59.933 53.546.321 55.048c-.438 1.038-.416 6.668 0 7.706.612 1.48 2.405 1.81 3.543.663.481-.508.525-.685.525-2.982v-2.428h8.486c9.47 0 10.214-.089 12.183-1.414.612-.42 2.559-2.097 4.352-3.753 4.528-4.174 3.74-3.93 13.145-3.842 7.35.088 7.459.088 8.88.64.81.31 1.925.839 2.516 1.192.962.574 15.179 14.53 15.179 14.927 0 .287-2.187 1.082-3.543 1.28-3.062.42-5.687-.485-8.4-2.892-3.87-3.422-6.91-4.372-13.976-4.35-3.455 0-4.22.221-4.768 1.347-.35.707-.371.95-.153 1.612.306.905.963 1.435 1.794 1.435.35 0 .612.067.612.155s-3.587 3.798-7.961 8.236c-8.465 8.545-8.88 9.053-9.23 11.416l-.131.95H4.39v-2.23c0-2.165-.022-2.23-.635-2.871C2.51 78.586.496 79.227.147 80.993c-.263 1.347-.154 6.139.175 6.911.634 1.524.087 1.458 12.729 1.458h11.395l.569.839c.962 1.501 3.456 2.914 5.687 3.246l.984.154.262 1.436c.504 2.914 1.881 4.747 4.55 6.072 1.859.927 3.915 1.082 5.752.463l1.225-.419.59 1.369c.7 1.634 2.407 3.378 4.003 4.107 1.51.707 5.227.729 6.562.022l.94-.464.569 1.303c.7 1.568 2.121 2.959 3.915 3.842 1.16.574 1.531.663 3.39.663 3.609 0 2.822.618 14.873-11.482 9.033-9.054 10.74-10.666 11.505-10.886.634-.177 3.827-.265 10.651-.265 7.109 0 9.908-.067 10.324-.265 1.225-.574 1.203-.11 1.203-17.599 0-12.034-.066-16.274-.262-16.693-.547-1.193-.657-1.215-11.155-1.215-8.902 0-9.755-.044-10.564-.42-.482-.22-2.297-1.7-4.047-3.311-3.521-3.224-4.505-3.975-6.32-4.703l-1.225-.508-21.873-.045c-17.016-.022-22.112.023-23.009.243zm45.363 4.88c.612.354 2.624 2.032 4.462 3.71 2.34 2.12 3.783 3.246 4.768 3.754l1.443.706 9.011.066 9.034.067v26.894l-9.23.067-9.252.066-1.422.64c-1.312.596-2.275 1.502-11.92 11.195-9.296 9.341-10.608 10.555-11.44 10.798-2.777.751-5.423-2.252-4.417-5.012.13-.332 1.902-2.319 3.915-4.373 2.034-2.075 3.85-3.996 4.046-4.305.94-1.458-.088-3.313-1.86-3.313-.918 0-.962.045-6.736 5.83-3.193 3.224-6.102 5.962-6.43 6.072-1.072.42-2.625.287-3.456-.265-1.378-.905-2.143-3.334-1.487-4.637.131-.265 2.45-2.738 5.14-5.476 4.834-4.924 4.9-4.99 4.9-5.918 0-1.325-.898-2.23-2.21-2.23-.919 0-.962.022-7.283 6.382-3.5 3.51-6.671 6.536-7.065 6.734-2.668 1.347-5.862-1.369-5.074-4.35.197-.794 1.05-1.744 6.014-6.8 5.665-5.764 5.775-5.896 5.775-6.78 0-1.236-.678-2.009-1.925-2.186l-.919-.132-5.752 5.741c-6.168 6.16-6.868 6.69-8.53 6.381-1.597-.309-2.953-1.678-3.15-3.157-.262-1.921-.24-1.943 9.733-12.056 10.52-10.643 9.493-9.87 12.314-8.987 1.64.508 3.15 1.413 4.747 2.892 1.465 1.347 3.28 2.451 5.074 3.092 1.203.441 1.859.508 4.374.53 3.587 0 5.315-.486 7.787-2.142 2.1-1.413 2.712-2.164 2.712-3.335 0-.905-.066-.971-7.918-8.942l-7.94-8.016 9.515.067 9.514.066 1.138.662z" fill="#fff"/><path d="M1.415 69.687c-.262.11-.678.486-.962.84-1.028 1.324-.022 3.378 1.662 3.378 1.006 0 1.531-.31 1.968-1.148.875-1.723-.918-3.798-2.668-3.07z" fill="#fff"/></svg>