<svg width="97" height="135" fill="none" xmlns="http://www.w3.org/2000/svg"><path d="M44.208.175c-.67.132-1.637.528-2.183.897-1.017.74-1.439 1.452-2.68 4.778l-.768 2.112-2.804.924c-1.513.501-4.267 1.689-6.078 2.665l-3.324 1.742-2.505-1.134c-4.416-2.007-5.433-1.69-9.998 3.193-4.069 4.382-4.366 5.517-2.556 10.163l1.067 2.718-1.017 2.006c-1.315 2.614-2.63 5.992-3.374 8.737l-.595 2.191-2.456 1.03C1.985 43.464 1.265 43.99.546 45.39.025 46.42 0 46.842 0 51.514c0 2.745.074 5.332.198 5.755.397 1.53 1.762 2.692 4.54 3.88 1.44.633 2.655 1.267 2.704 1.425 1.067 3.775 1.935 6.203 3.275 9.106l1.613 3.511-1.067 2.798c-1.19 3.088-1.34 4.62-.595 6.15.248.502 1.835 2.376 3.522 4.197 2.828 3.01 3.052 3.326 2.828 3.96-.124.369-2.53 6.281-5.333 13.144-2.804 6.89-5.235 13.013-5.359 13.647-.422 1.979.199 4.223 1.613 5.912 1.736 2.033 2.48 2.218 8.806 2.35l5.582.105 3.225 3.352c2.754 2.878 3.424 3.458 4.565 3.854 2.406.845 5.16.079 6.872-1.9.521-.607 2.58-5.121 6.078-13.304 2.903-6.81 5.359-12.379 5.433-12.379.074 0 2.53 5.569 5.433 12.379 3.498 8.183 5.557 12.697 6.078 13.304 1.712 1.979 4.465 2.745 6.872 1.9 1.141-.396 1.81-.976 4.565-3.854l3.225-3.352 5.581-.105c5.21-.106 5.657-.159 6.748-.713 2.655-1.373 4.193-4.461 3.672-7.417-.124-.66-2.58-6.942-5.458-13.99-2.902-7.047-5.309-12.986-5.383-13.198-.05-.237 1.067-1.663 2.977-3.695 1.687-1.821 3.274-3.722 3.522-4.223.745-1.531.571-3.22-.595-6.124-.546-1.399-1.017-2.666-1.017-2.798 0-.132.62-1.478 1.364-2.983.745-1.53 1.861-4.381 2.456-6.335l1.117-3.537 2.555-1.135c1.414-.633 2.878-1.451 3.25-1.847C96.926 57.876 97 57.532 97 51.778c0-4.962-.025-5.358-.546-6.387-.72-1.426-1.587-2.06-4.49-3.273l-2.357-.977-.595-2.165c-.745-2.745-2.06-6.15-3.374-8.736l-1.017-2.007 1.091-2.745c1.811-4.645 1.538-5.727-2.828-10.373-4.317-4.593-5.433-4.936-9.75-2.957l-2.505 1.136-3.324-1.743c-1.811-.976-4.565-2.164-6.078-2.665l-2.804-.924-.893-2.376c-1.19-3.22-1.81-4.17-3.225-4.91C53.263.15 52.693.07 49.27.016c-2.133-.052-4.416.027-5.06.159zm7.542 4.382c.893.158.943.237 1.836 2.718 1.612 4.382 1.662 4.435 3.3 4.91 4.54 1.346 8.26 2.956 11.535 5.068 1.736 1.108 1.885 1.108 5.483-.58 1.414-.66 2.753-1.189 2.977-1.189.545 0 5.606 5.49 5.606 6.071 0 .264-.496 1.716-1.091 3.22-1.464 3.617-1.514 3.854-.893 4.963 1.686 3.062 3.795 8.13 4.54 10.901.47 1.742 1.017 3.352 1.215 3.59.199.264 1.712 1.03 3.324 1.716 1.613.712 3.027 1.399 3.126 1.557.347.554.224 8.262-.124 8.579-.149.158-1.439.739-2.853 1.32-3.473 1.425-3.671 1.61-4.143 3.43-1.24 4.726-2.63 8.395-4.465 11.668-1.29 2.296-1.29 2.296.099 5.728.695 1.689 1.265 3.299 1.265 3.563 0 .501-3.175 4.197-4.738 5.517l-.918.765-2.903-1.32c-3.175-1.451-4.093-1.583-5.21-.765-2.38 1.716-6.97 3.827-10.667 4.883-1.215.343-2.406.845-2.63 1.082-.223.264-.868 1.769-1.463 3.379-.596 1.584-1.191 3.062-1.315 3.246-.174.238-1.24.317-4.242.264l-3.994-.079-1.24-3.22c-.67-1.795-1.415-3.431-1.638-3.643-.199-.21-1.39-.712-2.63-1.055-3.795-1.109-8.26-3.168-10.618-4.857-1.116-.818-1.96-.686-5.185.765l-2.927 1.32-.918-.765c-1.563-1.32-4.738-5.016-4.738-5.517 0-.264.57-1.874 1.265-3.564.868-2.19 1.19-3.272 1.067-3.695-.1-.317-.67-1.478-1.265-2.587-1.563-2.85-2.953-6.44-3.771-9.687-.472-1.847-.893-2.956-1.24-3.246-.274-.238-1.712-.95-3.176-1.558-1.464-.633-2.828-1.267-2.977-1.399-.347-.264-.472-7.998-.124-8.526.1-.158 1.24-.739 2.53-1.293 3.895-1.636 4.168-1.821 4.466-3.114 1.116-4.593 2.654-8.553 5.085-13.12.745-1.398.745-1.504-.769-5.225-.595-1.505-1.091-2.957-1.091-3.22 0-.555 5.11-6.072 5.606-6.072.199 0 1.687.581 3.3 1.32 1.613.713 3.15 1.32 3.424 1.32.247 0 1.017-.37 1.711-.845.67-.448 2.332-1.399 3.697-2.085 2.257-1.135 3.374-1.557 7.938-3.062l1.489-.475 1.34-3.484c1.165-3.115 1.389-3.484 1.984-3.59 1.067-.185 5.78-.185 6.748-.026zm-22.154 87.29c1.737.924 4.317 2.059 5.756 2.534 1.439.475 2.753.95 2.952 1.055.173.08.769 1.347 1.315 2.798 1.315 3.511 2.133 4.435 4.44 4.989l1.142.29-5.434 12.802c-5.953 13.99-6.202 14.439-7.839 14.148-.72-.105-1.488-.765-4.019-3.431-1.712-1.795-3.448-3.458-3.895-3.696-.645-.343-1.711-.422-5.83-.422-2.778 0-5.457-.132-5.954-.264-1.091-.343-1.687-1.135-1.687-2.27 0-.792 10.618-27.32 11.189-27.953.248-.264 4.143-2.164 4.515-2.217.124-.026 1.637.713 3.35 1.637zm43.24-.713c1.142.528 2.209 1.082 2.382 1.267.596.607 11.239 27.108 11.239 27.979 0 .502-.224 1.162-.472 1.505-.471.633-.546.633-6.276.765-4.937.132-5.905.211-6.649.634-.471.264-2.257 1.953-3.97 3.748-3.547 3.748-4.291 4.118-5.556 2.956-1.042-.924-11.908-26.448-11.338-26.554 2.953-.633 3.846-1.531 5.235-5.226.595-1.531 1.19-2.824 1.34-2.877 2.53-.687 6.549-2.323 8.707-3.537 1.514-.845 2.853-1.557 3.002-1.584.149 0 1.19.396 2.357.924z" fill="#fff"/><path d="M44.779 15.88c-.199.053-1.216.238-2.233.396-4.168.713-8.757 2.666-12.677 5.411-7.715 5.385-13.024 13.99-14.761 24.02-.521 3.036-.521 8.922 0 12.09 2.084 12.247 9.774 22.515 20.467 27.187 18.308 8.024 39.122-2.27 45.15-22.304 1.117-3.775 1.539-6.678 1.539-10.902 0-5.358-.77-9.45-2.63-14.174-3.647-9.16-11.337-16.761-20.219-20.008-3.373-1.214-5.656-1.61-10.047-1.716-2.307-.053-4.39-.053-4.59 0zm8.509 4.751c11.734 2.165 20.888 11.113 23.915 23.281.769 3.168 1.042 9.08.57 12.538-1.463 10.69-8.46 20.166-17.96 24.363-14.39 6.335-30.837-.237-37.808-15.045-2.332-4.989-3.126-9.107-2.953-15.178.075-3.273.249-4.619.745-6.678 3.002-12.089 12.106-21.037 23.716-23.254 2.556-.502 7.17-.502 9.775-.027z" fill="#fff"/><path d="M58.672 36.627c-.844.396-3.35 2.877-9.824 9.793l-8.708 9.238-1.216-.739c-1.041-.66-1.463-.765-3.076-.765-2.108 0-3.3.528-4.614 2.032-1.662 1.848-2.134 3.986-1.464 6.467.372 1.4.695 1.821 3.424 4.778 1.662 1.795 3.448 3.51 3.994 3.8 1.39.766 3.274.898 4.887.344 1.265-.422 2.06-1.214 12.702-12.512 8.261-8.737 11.536-12.38 11.982-13.303.744-1.53.844-3.986.248-5.517-1.364-3.405-5.234-5.094-8.335-3.616zm3.895 4.514c.744.87.893 1.663.471 2.507-.198.396-5.21 5.887-11.114 12.169-9.526 10.11-10.866 11.429-11.685 11.587-.918.159-.967.106-3.696-2.771-2.555-2.666-2.779-2.983-2.779-3.88 0-.766.174-1.135.695-1.61 1.042-.977 1.96-.845 3.324.527 1.315 1.32 2.208 1.663 3.076 1.215.298-.185 4.813-4.83 9.998-10.321 8.857-9.397 9.502-10.004 10.32-10.004.596 0 1.042.185 1.39.58z" fill="#fff"/></svg>