<svg width="96" height="143" fill="none" xmlns="http://www.w3.org/2000/svg"><path d="M43.36.378c-8.384 1.536-15.325 6.9-18.962 14.75-1.805 3.856-2.221 6.175-2.388 12.768l-.166 5.728-.972 1.983c-.916 1.872-.972 2.151-.86 4.19.11 2.6.749 4.136 2.442 5.924 1.305 1.369 2.221 1.872 4.22 2.402l1.444.364.5 2.011c.944 3.855 3.276 7.739 6.052 10.086l1.389 1.173v5.42L23.37 72.122c-6.997 2.738-13.382 5.364-14.188 5.867-3.553 2.151-6.718 5.95-7.968 9.582C.05 90.98-.062 93.606.022 117.047l.083 21.959.833 1.341c.555.894 1.25 1.564 2.054 2.011 1.222.643 1.25.643 12.105.643 10.55 0 10.883-.028 11.467-.559.832-.782.832-2.291 0-3.073-.528-.475-.972-.559-3.193-.559h-2.582V96.875l-.694-.67c-.917-.95-2.138-.923-2.888.027-.583.727-.583.922-.583 21.652v20.925h-5.747c-3.193 0-5.97-.139-6.191-.279-.361-.224-.417-3.157-.417-23.524 0-21.735.028-23.384.5-24.948 1.027-3.353 3.11-6.174 5.97-8.046 1.998-1.313 16.546-7.152 16.935-6.789.111.112 1.694 3.24 3.526 6.957 2.749 5.587 3.498 6.872 4.275 7.375 1.167.782 2.638.81 3.86.084.5-.307.944-.559 1.027-.559.055 0 .472.53.916 1.201l.833 1.174-3.193 18.858c-2.693 16.036-3.137 18.997-2.887 19.836.194.614 1.61 2.402 3.776 4.833l3.498 3.827H38.89c-4.054 0-4.498.056-5.165.587-.999.782-.999 2.235.028 3.017l.722.587 28.93-.056 28.902-.084 1.165-.782c.64-.419 1.444-1.285 1.777-1.956.611-1.145.639-1.396.722-11.231.056-5.531.028-10.448-.083-10.979-.333-1.788-1.999-2.57-3.332-1.565-.527.391-.555.839-.694 11.175-.11 9.136-.194 10.784-.555 11.008-.222.14-2.999.279-6.164.279H79.37v-20.925c0-20.73 0-20.925-.583-21.652-.75-.95-1.972-.978-2.888-.028l-.694.67v41.935H52.69l3.47-3.855c2.221-2.431 3.61-4.191 3.804-4.805.25-.839-.194-3.884-2.887-19.836l-3.193-18.858.833-1.174c.444-.67.86-1.2.916-1.2.083 0 .527.25 1.027.558a3.614 3.614 0 003.748 0c.75-.447 1.5-1.76 4.387-7.571 2.97-5.923 3.581-6.985 4.026-6.873.277.084 3.692 1.369 7.551 2.878 9.245 3.576 11.3 4.945 13.549 8.912 1.61 2.877 1.721 3.688 1.86 13.354l.139 8.856.694.559c.944.726 1.555.699 2.499-.112l.777-.67.083-6.957c.111-7.878-.194-11.594-1.194-14.444-1.249-3.576-4.025-7.012-7.579-9.33-1.027-.671-6.302-2.878-14.437-6.063l-12.827-5.001V61.56l2.055-2.15c2.748-2.906 4.33-6.007 5.275-10.31.139-.614.36-.782 1.305-.922 2.415-.39 4.942-2.263 6.052-4.498.361-.698.778-2.095.944-3.045.25-1.592.222-1.984-.333-3.688-.333-1.061-.833-2.151-1.083-2.458-.389-.42-.5-1.453-.638-6.705-.14-5.001-.278-6.594-.75-8.326-2.277-8.465-8.551-15.282-16.575-18.048C52.134.015 47.414-.377 43.36.378zm10.134 4.61c6.469 1.843 11.577 6.37 14.16 12.516 1.249 2.933 1.72 5.615 1.72 9.834v3.632l-.749-.168c-1.11-.28-1.194-.335-1.194-1.09 0-.726-1.693-2.85-5.302-6.593-1.722-1.788-2.25-2.18-3.221-2.319-1.25-.223-1.194-.251-5.914 2.291-6.108 3.269-12.16 4.805-19.073 4.805-3.693 0-4.859.42-5.442 1.956-.277.754-.888 1.118-1.915 1.118-.445 0-.5-.308-.5-2.878 0-1.564.139-3.744.277-4.805 1.222-9.555 8.44-17.126 17.908-18.858 2.193-.391 6.94-.112 9.245.558zm7.357 22.825l2.416 2.682v8.828c0 6.845-.111 9.163-.417 10.365-1.416 5.364-5.636 9.61-10.966 11.035-2.027.531-6.025.531-8.163-.028-4.83-1.257-8.8-4.917-10.689-9.834-.694-1.844-.694-2.04-.805-10.337l-.11-8.437h2.609c6.94-.028 15.187-2.263 21.045-5.7 1.138-.67 2.22-1.229 2.36-1.229.166 0 1.36 1.202 2.72 2.655zM28.007 39.49c0 5.084 0 5.112-1.693 3.967-2.749-1.872-2.999-5.616-.5-7.404.527-.363 1.693-1.006 2.138-1.145.027-.028.055 2.04.055 4.582zm41.673-3.744c.916.642 1.916 2.626 1.916 3.772-.028 1.927-1.61 3.995-3.415 4.442l-.75.195v-9.331l.75.195c.416.084 1.083.42 1.5.727zm-22.627 29.53c2.748.084 3.72.028 5.553-.447 1.194-.307 2.415-.642 2.693-.754.416-.168.472 0 .472 1.816v2.04l-3.776 4.72c-2.082 2.571-3.887 4.694-3.998 4.694-.139 0-1.916-2.095-3.998-4.693l-3.776-4.666v-3.995l1.75.559c1.165.39 2.776.614 5.08.726zM41.278 75.95c2.027 2.515 3.582 4.666 3.47 4.75-.666.587-7.08 5.056-7.162 4.973-.417-.447-5.97-12.07-5.83-12.21.305-.279 5.246-2.206 5.552-2.15.139.056 1.943 2.123 3.97 4.637zm20.045-3.743c1.444.558 2.749 1.117 2.86 1.229.167.14-5.275 11.706-5.775 12.237-.055.056-1.721-1.062-3.72-2.487-3.22-2.319-3.582-2.654-3.276-3.1.722-1.034 6.996-8.857 7.135-8.857.083-.028 1.333.419 2.776.978zM50.218 85.113c1 .698 1.832 1.285 1.888 1.341.055.028-.25.587-.666 1.201l-.75 1.146h-5.386l-.778-1.146c-.61-.922-.666-1.229-.388-1.397.222-.111 1.138-.782 2.054-1.452.916-.67 1.805-1.174 1.944-1.09.166.084 1.082.699 2.082 1.397zm-.167 8.633c.084.447 1.416 8.325 2.943 17.545 1.555 9.219 2.86 16.958 2.916 17.181.11.391-7.469 9.08-7.913 9.08-.111 0-1.971-1.956-4.11-4.33-2.914-3.213-3.886-4.47-3.803-4.889.084-.308 1.388-8.046 2.915-17.182 1.527-9.136 2.86-16.958 2.943-17.405.14-.727.195-.755 2.055-.755s1.916.028 2.054.755z" fill="#fff"/></svg>